<?xml version="1.0" standalone="no"?>
<!DOCTYPE svg PUBLIC "-//W3C//DTD SVG 20010904//EN"
 "http://www.w3.org/TR/2001/REC-SVG-20010904/DTD/svg10.dtd">
<svg version="1.0" xmlns="http://www.w3.org/2000/svg"
 width="512.000000pt" height="512.000000pt" viewBox="0 0 512.000000 512.000000"
 preserveAspectRatio="xMidYMid meet">

<g transform="translate(0.000000,512.000000) scale(0.100000,-0.100000)"
fill="#000000" stroke="none">
<path d="M2521 4764 l-161 -166 36 75 c20 42 34 80 32 85 -1 5 -57 -33 -123
-85 -137 -108 -264 -197 -380 -267 -346 -209 -495 -359 -655 -660 -29 -53 -53
-96 -55 -96 -1 0 -32 20 -69 45 -102 68 -200 95 -346 95 -99 0 -132 -4 -197
-25 -227 -71 -386 -241 -458 -489 -104 -362 51 -754 359 -906 45 -21 89 -42
100 -45 13 -4 16 -10 10 -23 -46 -104 -58 -160 -58 -272 1 -128 15 -192 64
-277 115 -200 348 -135 442 125 17 46 21 81 22 187 0 121 -1 135 -28 198 -15
38 -26 70 -24 72 1 1 20 10 41 18 20 9 62 33 93 53 31 20 59 33 63 28 4 -5 27
-30 50 -56 l42 -47 -20 -40 c-73 -143 -100 -383 -63 -561 45 -218 134 -380
297 -546 161 -164 354 -280 547 -331 l66 -17 90 -181 c50 -99 94 -191 100
-205 8 -23 10 -21 27 30 10 30 21 87 25 125 l6 70 18 -40 c53 -119 92 -335 81
-439 l-6 -51 47 50 c80 85 145 195 190 323 12 35 24 66 28 69 8 8 6 -99 -3
-164 -4 -29 -6 -53 -4 -53 9 0 56 59 98 122 50 75 123 216 150 293 10 28 23
55 29 61 6 6 49 26 95 43 248 93 497 312 629 554 87 160 122 298 122 484 0
132 -19 238 -60 337 l-29 69 41 51 c23 28 45 55 49 60 4 5 34 -9 67 -30 33
-22 74 -47 92 -57 23 -12 31 -22 27 -35 -4 -9 -16 -43 -27 -76 -44 -122 -34
-295 23 -419 34 -73 108 -152 162 -173 62 -23 142 -16 193 19 55 36 109 129
128 219 23 106 14 251 -21 346 -26 73 -26 92 1 92 29 0 146 63 213 115 115 90
212 243 256 400 26 94 31 296 10 391 -49 222 -181 399 -368 493 -110 56 -203
74 -337 68 -142 -7 -244 -44 -358 -129 -30 -22 -54 -38 -55 -36 -1 1 -19 37
-40 79 -96 195 -251 381 -427 513 -165 125 -329 203 -537 257 -65 17 -119 32
-121 34 -2 2 8 25 21 52 27 54 70 173 64 179 -2 2 -57 -32 -121 -76 -65 -45
-120 -79 -123 -76 -2 2 4 21 15 43 40 79 94 275 80 289 -3 2 -78 -70 -167
-162z m-466 -1085 c39 -12 99 -37 135 -56 84 -46 230 -193 296 -295 27 -43 51
-77 54 -77 3 0 30 39 60 86 81 125 205 240 323 298 267 132 538 87 737 -121
79 -84 121 -164 144 -276 63 -305 -79 -549 -361 -622 -34 -9 -89 -19 -122 -22
-34 -4 -61 -10 -61 -14 0 -4 19 -12 43 -19 74 -22 160 -74 229 -139 82 -78
118 -133 155 -237 26 -74 28 -91 27 -230 -1 -134 -4 -160 -28 -240 -89 -293
-324 -536 -640 -661 -44 -18 -135 -44 -201 -60 -108 -24 -139 -27 -305 -27
-202 -1 -278 11 -445 64 -284 91 -517 287 -631 533 -101 220 -110 497 -23 685
62 134 182 247 322 303 75 31 75 34 5 42 -157 18 -266 65 -351 155 -93 97
-137 213 -137 363 0 99 14 166 54 253 80 174 254 305 446 335 76 12 191 3 275
-21z m-1184 -99 c73 -14 165 -60 216 -109 l42 -41 -14 -42 c-8 -24 -19 -61
-24 -84 l-11 -41 -52 18 c-99 34 -207 21 -273 -33 -60 -50 -80 -100 -80 -198
0 -89 13 -128 58 -177 30 -33 38 -28 21 12 -18 44 -18 146 0 188 7 18 29 46
47 64 59 56 122 67 187 34 65 -33 75 -51 67 -123 -8 -76 7 -225 34 -328 l19
-75 -30 -32 c-17 -17 -56 -45 -87 -61 -245 -131 -550 23 -644 323 -28 91 -29
242 -3 330 59 198 192 332 367 369 80 18 94 18 160 6z m3652 -38 c187 -93 288
-283 273 -517 -10 -159 -69 -289 -178 -391 -98 -93 -201 -129 -341 -121 -75 4
-99 10 -160 40 -40 20 -87 51 -106 70 l-33 35 16 64 c23 94 36 193 36 287 0
74 3 88 25 117 29 39 99 74 145 74 46 0 116 -36 146 -75 39 -51 51 -130 32
-201 -9 -33 -16 -60 -14 -61 8 -8 49 34 66 67 30 58 36 136 16 204 -45 153
-229 220 -385 141 -29 -14 -54 -25 -55 -23 -10 13 -33 136 -27 146 16 29 108
115 148 139 72 42 120 53 220 50 84 -3 98 -6 176 -45z m-195 -1129 c205 -156
188 -703 -21 -703 l-31 0 37 34 c144 132 111 521 -53 630 -42 27 -49 43 -28
64 17 17 54 7 96 -25z m-3450 1 c2 -15 -7 -27 -31 -42 -48 -28 -85 -80 -115
-164 -23 -64 -27 -88 -26 -193 0 -102 3 -129 23 -180 13 -33 39 -74 58 -92 39
-38 41 -43 9 -43 -52 0 -124 73 -147 149 -16 53 -23 228 -11 291 24 125 81
230 152 278 42 28 84 26 88 -4z m3400 -138 c6 -6 22 -39 34 -71 19 -51 22 -81
23 -190 0 -140 -10 -176 -57 -209 -30 -22 -41 -20 -77 9 -87 74 -108 348 -36
462 12 18 21 20 57 16 24 -3 49 -11 56 -17z m-3336 -28 c21 -38 23 -57 23
-173 0 -115 -3 -136 -23 -182 -39 -85 -84 -115 -126 -82 -66 52 -76 266 -19
417 17 47 38 60 90 61 28 1 36 -5 55 -41z"/>
<path d="M1795 3237 c-126 -42 -232 -147 -250 -250 -8 -40 5 -67 32 -67 8 0
38 20 66 45 29 25 81 60 117 78 58 29 73 32 155 32 80 0 97 -3 155 -31 36 -18
89 -50 119 -73 58 -43 71 -44 71 -5 0 80 -104 204 -210 252 -67 30 -193 39
-255 19z"/>
<path d="M3069 3235 c-105 -34 -202 -130 -234 -232 -25 -80 -11 -84 78 -19
107 76 151 91 267 91 84 0 102 -4 152 -28 32 -16 82 -51 112 -78 58 -53 80
-60 96 -29 34 64 -82 231 -197 281 -63 28 -208 35 -274 14z"/>
<path d="M2205 2787 c-128 -43 -195 -125 -195 -239 0 -68 23 -114 78 -155 50
-38 71 -43 48 -10 -39 55 -50 84 -50 137 1 66 21 107 70 148 119 98 298 41
368 -116 l19 -42 18 40 c48 106 126 160 230 160 106 -1 172 -43 200 -127 17
-52 7 -126 -25 -174 -15 -22 -25 -43 -22 -46 11 -11 84 46 107 84 36 57 34
151 -4 215 -29 49 -88 97 -146 116 -19 7 -70 12 -115 12 -87 0 -149 -22 -211
-73 l-30 -25 -37 29 c-82 66 -216 95 -303 66z"/>
<path d="M2231 2566 c-21 -26 -25 -83 -7 -111 13 -20 24 -25 61 -25 58 0 86
-12 134 -56 l41 -36 0 31 c0 63 -55 156 -114 192 -36 22 -99 25 -115 5z"/>
<path d="M2755 2568 c-64 -35 -125 -131 -125 -198 l0 -34 38 36 c50 48 72 58
131 58 58 0 81 22 81 77 0 61 -67 93 -125 61z"/>
<path d="M1655 2256 c-87 -38 -139 -157 -106 -241 7 -17 12 -13 46 33 l38 53
33 -68 c18 -37 58 -99 89 -136 188 -227 570 -366 903 -329 127 14 273 51 359
91 92 43 225 135 282 196 55 58 128 166 137 202 4 13 9 23 13 23 3 0 20 -20
36 -45 17 -24 33 -45 37 -45 13 0 21 49 16 101 -6 63 -46 115 -112 148 -44 22
-52 23 -100 12 -31 -7 -62 -22 -75 -35 -25 -27 -25 -27 46 -50 29 -10 55 -21
58 -26 7 -11 -73 -117 -126 -165 -193 -177 -466 -259 -779 -235 -244 19 -438
98 -598 244 -65 59 -137 165 -123 179 5 5 31 15 58 22 59 15 61 32 8 62 -45
25 -95 29 -140 9z"/>
</g>
</svg>
